
<svg width="0" height="0" display = "none">
  <symbol version="1.1" id="instagram" xmlns="http://www.w3.org/2000/svg" xmlns:xlink="http://www.w3.org/1999/xlink" x="0px" y="0px" xml:space="preserve" viewBox="0 0 455.73 455.73">
  <g>
    <path d="M227.86,182.55c-24.98,0-45.32,20.33-45.32,45.31c0,24.99,20.34,45.33,45.32,45.33c24.99,0,45.32-20.34,45.32-45.33
	C273.18,202.88,252.85,182.55,227.86,182.55z M227.86,182.55c-24.98,0-45.32,20.33-45.32,45.31c0,24.99,20.34,45.33,45.32,45.33
	c24.99,0,45.32-20.34,45.32-45.33C273.18,202.88,252.85,182.55,227.86,182.55z M303.36,108.66H152.37
	c-24.1,0-43.71,19.61-43.71,43.71v150.99c0,24.1,19.61,43.71,43.71,43.71h150.99c24.1,0,43.71-19.61,43.71-43.71V152.37
	C347.07,128.27,327.46,108.66,303.36,108.66z M227.86,306.35c-43.27,0-78.48-35.21-78.48-78.49c0-43.27,35.21-78.48,78.48-78.48
	c43.28,0,78.49,35.21,78.49,78.48C306.35,271.14,271.14,306.35,227.86,306.35z M308.87,165.61c-10.24,0-18.57-8.33-18.57-18.57
	s8.33-18.57,18.57-18.57s18.57,8.33,18.57,18.57S319.11,165.61,308.87,165.61z M227.86,182.55c-24.98,0-45.32,20.33-45.32,45.31
	c0,24.99,20.34,45.33,45.32,45.33c24.99,0,45.32-20.34,45.32-45.33C273.18,202.88,252.85,182.55,227.86,182.55z M303.36,108.66
	H152.37c-24.1,0-43.71,19.61-43.71,43.71v150.99c0,24.1,19.61,43.71,43.71,43.71h150.99c24.1,0,43.71-19.61,43.71-43.71V152.37
	C347.07,128.27,327.46,108.66,303.36,108.66z M227.86,306.35c-43.27,0-78.48-35.21-78.48-78.49c0-43.27,35.21-78.48,78.48-78.48
	c43.28,0,78.49,35.21,78.49,78.48C306.35,271.14,271.14,306.35,227.86,306.35z M308.87,165.61c-10.24,0-18.57-8.33-18.57-18.57
	s8.33-18.57,18.57-18.57s18.57,8.33,18.57,18.57S319.11,165.61,308.87,165.61z M227.86,182.55c-24.98,0-45.32,20.33-45.32,45.31
	c0,24.99,20.34,45.33,45.32,45.33c24.99,0,45.32-20.34,45.32-45.33C273.18,202.88,252.85,182.55,227.86,182.55z M0,0v455.73h455.73
	V0H0z M380.23,303.36c0,42.39-34.48,76.87-76.87,76.87H152.37c-42.39,0-76.87-34.48-76.87-76.87V152.37
	c0-42.39,34.48-76.87,76.87-76.87h150.99c42.39,0,76.87,34.48,76.87,76.87V303.36z M303.36,108.66H152.37
	c-24.1,0-43.71,19.61-43.71,43.71v150.99c0,24.1,19.61,43.71,43.71,43.71h150.99c24.1,0,43.71-19.61,43.71-43.71V152.37
	C347.07,128.27,327.46,108.66,303.36,108.66z M227.86,306.35c-43.27,0-78.48-35.21-78.48-78.49c0-43.27,35.21-78.48,78.48-78.48
	c43.28,0,78.49,35.21,78.49,78.48C306.35,271.14,271.14,306.35,227.86,306.35z M308.87,165.61c-10.24,0-18.57-8.33-18.57-18.57
	s8.33-18.57,18.57-18.57s18.57,8.33,18.57,18.57S319.11,165.61,308.87,165.61z M227.86,182.55c-24.98,0-45.32,20.33-45.32,45.31
	c0,24.99,20.34,45.33,45.32,45.33c24.99,0,45.32-20.34,45.32-45.33C273.18,202.88,252.85,182.55,227.86,182.55z M227.86,182.55
	c-24.98,0-45.32,20.33-45.32,45.31c0,24.99,20.34,45.33,45.32,45.33c24.99,0,45.32-20.34,45.32-45.33
	C273.18,202.88,252.85,182.55,227.86,182.55z M227.86,182.55c-24.98,0-45.32,20.33-45.32,45.31c0,24.99,20.34,45.33,45.32,45.33
	c24.99,0,45.32-20.34,45.32-45.33C273.18,202.88,252.85,182.55,227.86,182.55z M303.36,108.66H152.37
	c-24.1,0-43.71,19.61-43.71,43.71v150.99c0,24.1,19.61,43.71,43.71,43.71h150.99c24.1,0,43.71-19.61,43.71-43.71V152.37
	C347.07,128.27,327.46,108.66,303.36,108.66z M227.86,306.35c-43.27,0-78.48-35.21-78.48-78.49c0-43.27,35.21-78.48,78.48-78.48
	c43.28,0,78.49,35.21,78.49,78.48C306.35,271.14,271.14,306.35,227.86,306.35z M308.87,165.61c-10.24,0-18.57-8.33-18.57-18.57
	s8.33-18.57,18.57-18.57s18.57,8.33,18.57,18.57S319.11,165.61,308.87,165.61z M227.86,182.55c-24.98,0-45.32,20.33-45.32,45.31
	c0,24.99,20.34,45.33,45.32,45.33c24.99,0,45.32-20.34,45.32-45.33C273.18,202.88,252.85,182.55,227.86,182.55z M227.86,182.55
	c-24.98,0-45.32,20.33-45.32,45.31c0,24.99,20.34,45.33,45.32,45.33c24.99,0,45.32-20.34,45.32-45.33
	C273.18,202.88,252.85,182.55,227.86,182.55z M227.86,182.55c-24.98,0-45.32,20.33-45.32,45.31c0,24.99,20.34,45.33,45.32,45.33
	c24.99,0,45.32-20.34,45.32-45.33C273.18,202.88,252.85,182.55,227.86,182.55z M303.36,108.66H152.37
	c-24.1,0-43.71,19.61-43.71,43.71v150.99c0,24.1,19.61,43.71,43.71,43.71h150.99c24.1,0,43.71-19.61,43.71-43.71V152.37
	C347.07,128.27,327.46,108.66,303.36,108.66z M227.86,306.35c-43.27,0-78.48-35.21-78.48-78.49c0-43.27,35.21-78.48,78.48-78.48
	c43.28,0,78.49,35.21,78.49,78.48C306.35,271.14,271.14,306.35,227.86,306.35z M308.87,165.61c-10.24,0-18.57-8.33-18.57-18.57
	s8.33-18.57,18.57-18.57s18.57,8.33,18.57,18.57S319.11,165.61,308.87,165.61z M227.86,182.55c-24.98,0-45.32,20.33-45.32,45.31
	c0,24.99,20.34,45.33,45.32,45.33c24.99,0,45.32-20.34,45.32-45.33C273.18,202.88,252.85,182.55,227.86,182.55z"></path> </g>
  </symbol>
   <symbol version="1.1" id="facebook" xmlns="http://www.w3.org/2000/svg" xmlns:xlink="http://www.w3.org/1999/xlink" x="0px" y="0px" xml:space="preserve" viewBox="0 0 455 455">
    <path d="M0,0v455h455V0H0z M301.004,125.217H265.44
	c-7.044,0-14.153,7.28-14.153,12.696v36.264h49.647c-1.999,27.807-6.103,53.235-6.103,53.235h-43.798V385h-65.266V227.395h-31.771
	v-53.029h31.771v-43.356c0-7.928-1.606-61.009,66.872-61.009h48.366V125.217z"></path>
  </symbol>
    <symbol version="1.1" id="telegram" xmlns="http://www.w3.org/2000/svg" xmlns:xlink="http://www.w3.org/1999/xlink" x="0px" y="0px" xml:space="preserve" viewBox="0 0 485 485">
    <g>
      <path d="M90.564,236.876l72.583,27.089l28.094,90.351c1.798,5.784,8.874,7.923,13.569,4.083l40.46-32.981
		c4.24-3.458,10.282-3.628,14.712-0.412l72.975,52.981c5.023,3.65,12.142,0.899,13.401-5.172l53.458-257.136
		c1.375-6.632-5.139-12.164-11.454-9.721L90.48,220.873C83.128,223.706,83.191,234.114,90.564,236.876z M186.713,249.546
		l141.854-87.367c2.548-1.565,5.172,1.882,2.981,3.913L214.479,274.913c-4.116,3.829-6.77,8.957-7.522,14.522l-3.986,29.553
		c-0.531,3.945-6.071,4.335-7.162,0.517l-15.337-53.891C178.717,259.468,181.276,252.901,186.713,249.546z"></path>
      <path d="M0,0v485h485V0H0z M455,455H30V30h425V455z"></path>
    </g>
  </symbol>
  <symbol version="1.1" id="youtube" xmlns="http://www.w3.org/2000/svg" xmlns:xlink="http://www.w3.org/1999/xlink" x="0px" y="0px" xml:space="preserve" viewBox="0 0 455 455">
    <g>
      <path d="M0,0v455h455V0H0z M379.493,301.961
		c-3.861,16.75-17.563,29.118-34.057,30.96c-39.044,4.353-78.575,4.382-117.952,4.353c-39.361,0.029-78.892,0-117.948-4.353
		c-16.498-1.841-30.199-14.21-34.04-30.96C70,278.114,70,252.061,70,227.499c0-24.562,0.065-50.603,5.556-74.45
		c3.841-16.766,17.547-29.118,34.024-30.959c39.06-4.365,78.608-4.382,117.969-4.365c39.357-0.016,78.892,0,117.948,4.365
		c16.498,1.841,30.199,14.193,34.057,30.959c5.495,23.847,5.446,49.888,5.446,74.45C385,252.061,384.984,278.114,379.493,301.961z"></path>
      <path d="M186.855,276.399c33.467-17.355,66.638-34.565,100.138-51.932
		c-33.597-17.53-66.764-34.821-100.138-52.237V276.399z"></path>
    </g>
   
  </symbol> 
   <symbol version="1.1" id="home" xmlns="http://www.w3.org/2000/svg" xmlns:xlink="http://www.w3.org/1999/xlink" x="0px" y="0px" xml:space="preserve" viewBox="0 0 58.365 58.365">
    <path d="M57.863,26.632l-8.681-8.061V5.365h-10v3.921L29.182,0L0.502,26.632c-0.404,0.376-0.428,1.009-0.052,1.414
	c0.375,0.404,1.008,0.427,1.414,0.052l3.319-3.082v33.349h16h16h16V25.015l3.319,3.082c0.192,0.179,0.437,0.267,0.681,0.267
	c0.269,0,0.536-0.107,0.732-0.319C58.291,27.641,58.267,27.008,57.863,26.632z M41.182,7.365h6v9.349l-6-5.571V7.365z
	 M23.182,56.365V35.302c0-0.517,0.42-0.937,0.937-0.937h10.126c0.517,0,0.937,0.42,0.937,0.937v21.063H23.182z M51.182,56.365h-14
	V35.302c0-1.62-1.317-2.937-2.937-2.937H24.119c-1.62,0-2.937,1.317-2.937,2.937v21.063h-14V23.158l22-20.429l14.28,13.26
	l5.72,5.311v0l2,1.857V56.365z"></path>
  </symbol>
  <symbol version="1.2" baseProfile="tiny" xmlns="http://www.w3.org/2000/svg" overflow="inherit" viewBox="0 0 50 50" id="gallery">
    <path d="M21.211 6c-12.632 0-20.211 10.133-20.211 15.2s2.526 8.867 7.579 8.867 7.58 1.266 7.58 5.066c0 5.066 3.789 8.866 8.842 8.866 16.422 0 24-8.866 24-17.732-.001-15.2-12.635-20.267-27.79-20.267zm-3.158 5.067c1.744 0 3.158 1.418 3.158 3.166 0 1.75-1.414 3.167-3.158 3.167s-3.158-1.418-3.158-3.167c0-1.748 1.414-3.166 3.158-3.166zm10.104 0c1.744 0 3.158 1.418 3.158 3.166 0 1.75-1.414 3.167-3.158 3.167-1.743 0-3.157-1.418-3.157-3.167 0-1.748 1.414-3.166 3.157-3.166zm10.106 5.066c1.745 0 3.159 1.417 3.159 3.167 0 1.75-1.414 3.166-3.159 3.166-1.744 0-3.157-1.417-3.157-3.166-.001-1.749 1.413-3.167 3.157-3.167zm-29.052 2.534c1.744 0 3.157 1.417 3.157 3.165 0 1.75-1.414 3.167-3.157 3.167s-3.158-1.418-3.158-3.167c0-1.748 1.414-3.165 3.158-3.165zm15.789 12.666c2.093 0 3.789 1.7 3.789 3.801 0 2.098-1.696 3.799-3.789 3.799s-3.789-1.701-3.789-3.799c0-2.101 1.696-3.801 3.789-3.801z"></path>
  </symbol>
  <symbol version="1.1" id="down" xmlns="http://www.w3.org/2000/svg" xmlns:xlink="http://www.w3.org/1999/xlink" x="0px" y="0px" xml:space="preserve" viewBox="0 0 471.2 471.2">
    
        <path d="M396.7,0H74.5C33.4,0,0,33.4,0,74.5v322.2c0,41.1,33.4,74.5,74.5,74.5h322.2c41.1,0,74.5-33.4,74.5-74.5V74.5
			C471.2,33.5,437.7,0,396.7,0z M444.2,396.7c0,26.2-21.3,47.5-47.5,47.5H74.5c-26.2,0-47.5-21.3-47.5-47.5V74.5
			C27,48.3,48.3,27,74.5,27h322.2c26.2,0,47.5,21.3,47.5,47.5V396.7z"></path>
        <path d="M296.6,264.6l-47.5,47.5V126.6c0-7.5-6-13.5-13.5-13.5s-13.5,6-13.5,13.5V312l-47.5-47.4c-5.3-5.3-13.8-5.3-19.1,0
			s-5.3,13.8,0,19.1l70.5,70.5c2.6,2.6,6.1,4,9.5,4s6.9-1.3,9.5-4l70.6-70.6c5.3-5.3,5.3-13.8,0-19.1
			C310.4,259.3,301.8,259.3,296.6,264.6z"></path>
      
    
  </symbol> 

   <symbol version="1.1" id="left-arrow" xmlns="http://www.w3.org/2000/svg" xmlns:xlink="http://www.w3.org/1999/xlink" x="0px" y="0px" xml:space="preserve" viewBox="0 0 54 54">
    
      <path d="M27,0C12.112,0,0,12.112,0,27s12.112,27,27,27s27-12.112,27-27S41.888,0,27,0z M27,52C13.215,52,2,40.785,2,27
		S13.215,2,27,2s25,11.215,25,25S40.785,52,27,52z"></path>
      <path d="M32.413,14.293c-0.391-0.391-1.023-0.391-1.414,0L19.501,25.791c-0.667,0.667-0.667,1.751,0,2.418l11.498,11.498
		C31.194,39.902,31.45,40,31.706,40s0.512-0.098,0.707-0.293c0.391-0.391,0.391-1.023,0-1.414L21.12,27l11.293-11.293
		C32.804,15.316,32.804,14.684,32.413,14.293z"></path>
   
    
  </symbol>
</svg>